<mxfile host="app.diagrams.net" modified="2023-01-25T21:05:46.740Z" agent="5.0 (X11)" etag="6QdnuaoVgFzlfPLbdw-X" version="20.8.11" type="github">
  <diagram name="Page-1" id="gGKjnf9R0GFVCIic3Ptb">
    <mxGraphModel dx="1434" dy="795" grid="1" gridSize="10" guides="1" tooltips="1" connect="1" arrows="1" fold="1" page="1" pageScale="1" pageWidth="827" pageHeight="1169" math="0" shadow="0">
      <root>
        <mxCell id="0" />
        <mxCell id="1" parent="0" />
        <mxCell id="35hwn5hD69ylx84ITy5_-1" value="ddd" style="rounded=0;whiteSpace=wrap;html=1;" parent="1" vertex="1">
          <mxGeometry x="250" y="210" width="120" height="60" as="geometry" />
        </mxCell>
        <mxCell id="ae6UUKjy0luqH-rEiQfr-1" value="" style="rounded=0;whiteSpace=wrap;html=1;" vertex="1" parent="1">
          <mxGeometry x="200" y="360" width="120" height="60" as="geometry" />
        </mxCell>
      </root>
    </mxGraphModel>
  </diagram>
</mxfile>
